<?xml version="1.0" standalone="no"?>
<!DOCTYPE svg PUBLIC "-//W3C//DTD SVG 20010904//EN"
 "http://www.w3.org/TR/2001/REC-SVG-20010904/DTD/svg10.dtd">
<svg version="1.0" xmlns="http://www.w3.org/2000/svg"
 width="1406.000000pt" height="1406.000000pt" viewBox="0 0 1406.000000 1406.000000"
 preserveAspectRatio="xMidYMid meet">
<metadata>
Created by potrace 1.11, written by Peter Selinger 2001-2013
</metadata>
<g transform="translate(0.000000,1406.000000) scale(0.100000,-0.100000)"
fill="#000000" stroke="none">
<path d="M0 7030 l0 -6090 7030 0 7030 0 0 6090 0 6090 -7030 0 -7030 0 0
-6090z m7482 3189 c33 -35 43 -40 66 -34 74 18 75 17 121 -35 l43 -51 -1 -392
c-1 -391 -13 -889 -31 -1382 -38 -1021 -47 -2136 -22 -2665 7 -151 22 -459 33
-685 19 -408 26 -864 14 -920 -14 -61 -28 -84 -62 -100 -19 -9 -47 -15 -61
-12 -45 9 -100 -21 -123 -65 -42 -83 -125 -101 -205 -44 -27 19 -90 60 -140
90 -155 94 -194 155 -229 361 -30 180 -37 308 -42 773 -13 1152 139 4644 218
5001 21 96 68 139 140 127 32 -5 40 -2 56 20 14 20 31 27 76 33 31 4 60 11 64
14 16 17 49 4 85 -34z m2008 -77 c110 -113 171 -195 395 -532 292 -440 637
-989 1119 -1782 l229 -377 76 127 c289 480 937 1443 1340 1992 273 372 416
536 503 581 62 32 196 33 230 3 21 -20 31 -21 124 -17 94 5 103 4 123 -16 16
-16 33 -21 74 -21 78 0 87 -11 49 -55 -18 -19 -32 -44 -32 -55 0 -11 -33 -59
-73 -107 -352 -423 -1789 -2330 -2097 -2784 l-87 -128 -6 -358 c-6 -368 -22
-872 -61 -1939 -17 -469 -25 -616 -35 -628 -10 -12 -31 -16 -77 -16 -61 0 -64
1 -79 30 -19 37 -35 31 -35 -14 0 -19 -3 -48 -6 -65 -6 -29 -10 -32 -33 -26
-14 3 -54 24 -88 47 -34 22 -66 37 -71 34 -5 -3 -7 -19 -4 -37 4 -30 3 -32
-23 -25 -15 4 -44 18 -64 32 -59 40 -62 37 -76 -86 -11 -92 -11 -93 -57 -86
-22 4 -64 18 -93 32 -92 43 -90 32 -89 509 1 258 12 639 28 1025 32 728 43
1303 28 1408 -12 86 18 34 -590 992 -650 1022 -1111 1767 -1269 2050 -43 78
-68 211 -45 247 17 26 128 49 191 38 29 -5 39 -12 48 -36 19 -49 37 -46 97 15
30 31 58 56 64 56 5 0 28 -13 50 -30 58 -41 75 -39 113 18 41 60 56 72 93 72
24 0 45 -16 116 -88z m-6465 -102 c523 -31 918 -130 1340 -336 328 -159 574
-341 815 -600 334 -360 554 -827 637 -1354 28 -178 25 -599 -5 -774 -171 -987
-831 -1934 -1726 -2477 -312 -188 -603 -298 -1051 -394 -635 -136 -1333 -119
-1685 42 -84 38 -141 88 -172 149 l-20 41 26 719 c14 395 35 982 47 1304 11
322 37 1021 58 1553 36 914 39 970 58 995 32 44 109 78 242 106 130 28 169 43
261 101 52 34 103 45 114 26 3 -5 -1 -661 -8 -1457 -8 -797 -16 -1766 -18
-2154 l-3 -705 80 -8 c96 -9 403 6 570 28 429 56 893 253 1297 549 343 253
700 663 937 1075 296 518 412 1174 311 1765 -114 670 -490 1057 -1172 1210
-238 54 -494 77 -858 78 -250 1 -347 -8 -605 -58 -385 -75 -764 -184 -1551
-445 -264 -87 -490 -159 -501 -159 -14 0 -45 29 -94 86 l-72 85 22 22 c12 12
36 27 54 33 30 10 32 13 29 53 -3 31 1 46 13 55 16 11 13 15 -29 40 -25 15
-54 39 -63 53 -17 25 -16 26 9 47 14 11 33 38 42 59 20 48 105 139 179 189
130 89 299 161 485 208 834 210 1430 284 2007 250z"/>
</g>
</svg>
